# xmcd
#
# Track frame offsets: 
#        150
#        16899
#        43569
#        61628
#        78898
#        102388
#        115783
#        137128
#        157605
#        171934
#        189153
#        206834
#        224627
#        243543
#
# Disc length: 3587 seconds
#
# Revision: 0
# Processed by: cddbd v1.5.2PL0 Copyright (c) Steve Scherf et al.
# Submitted via: ExactAudioCopy v1.3
#
DISCID=b50e010e
DTITLE=Mark Cameron - On A Roll
DYEAR=2019
DGENRE=Electric Blues
TTITLE0=Trouble Brewin'
TTITLE1=On Your Way To The Top
TTITLE2=Dirty Biscuit
TTITLE3=Ridin' The Rails
TTITLE4=On A Roll
TTITLE5=Dicey
TTITLE6=Next Stop Is The Blues
TTITLE7=Where I Got You From
TTITLE8=Movin' Out
TTITLE9=Back Seat Boogie
TTITLE10=Here We Go
TTITLE11=What Lucy Says
TTITLE12=Mojo Shuffle
TTITLE13=Dreams
EXTD=
EXTT0=
EXTT1=
EXTT2=
EXTT3=
EXTT4=
EXTT5=
EXTT6=
EXTT7=
EXTT8=
EXTT9=
EXTT10=
EXTT11=
EXTT12=
EXTT13=
PLAYORDER=
